<mxfile host="app.diagrams.net" agent="Mozilla/5.0 (Windows NT 10.0; Win64; x64) AppleWebKit/537.36 (KHTML, like Gecko) Chrome/132.0.0.0 Safari/537.36" version="26.0.8">
  <diagram name="Pagina-1" id="qYxUEqmofQLP7HRl4pz8">
    <mxGraphModel grid="1" page="1" gridSize="10" guides="1" tooltips="1" connect="1" arrows="1" fold="1" pageScale="1" pageWidth="827" pageHeight="1169" math="0" shadow="1">
      <root>
        <mxCell id="0" />
        <mxCell id="1" parent="0" />
        <mxCell id="ItmKk5HgFrsZ6VLKiwgs-5" value="" style="ellipse;html=1;shape=startState;fillColor=#000000;strokeColor=light-dark(#000000, #5c79a3);strokeWidth=2;" vertex="1" parent="1">
          <mxGeometry x="-1300.01" y="70" width="30" height="30" as="geometry" />
        </mxCell>
        <mxCell id="vAcUoiLAdpBcWY1jd_Jo-25" value="" style="edgeStyle=orthogonalEdgeStyle;html=1;verticalAlign=bottom;endArrow=open;endSize=8;strokeColor=#6c8ebf;rounded=0;exitX=0.013;exitY=0.826;exitDx=0;exitDy=0;exitPerimeter=0;fillColor=#dae8fc;strokeWidth=2;" edge="1" parent="1">
          <mxGeometry relative="1" as="geometry">
            <mxPoint x="-1285.8600000000001" y="158" as="targetPoint" />
            <mxPoint x="-1284.8600000000001" y="126" as="sourcePoint" />
            <Array as="points">
              <mxPoint x="-1286.51" y="126" />
              <mxPoint x="-1286.51" y="100" />
            </Array>
          </mxGeometry>
        </mxCell>
        <mxCell id="cl8IE2r-ji0NroWe0n9R-25" value="Log Hyperparameter Search Space" style="rounded=1;whiteSpace=wrap;html=1;arcSize=40;fillColor=#dae8fc;strokeColor=#6c8ebf;strokeWidth=2;" vertex="1" parent="1">
          <mxGeometry x="-1500" y="338" width="120" height="40" as="geometry" />
        </mxCell>
        <mxCell id="cl8IE2r-ji0NroWe0n9R-26" value="Log Hyperparameter Search Space" style="rounded=1;whiteSpace=wrap;html=1;arcSize=40;fillColor=#dae8fc;strokeColor=#6c8ebf;strokeWidth=2;" vertex="1" parent="1">
          <mxGeometry x="-1345" y="338" width="120" height="40" as="geometry" />
        </mxCell>
        <mxCell id="cl8IE2r-ji0NroWe0n9R-27" value="Suggest Values for Hyperparameters" style="rounded=1;whiteSpace=wrap;html=1;arcSize=40;fillColor=#dae8fc;strokeColor=#6c8ebf;strokeWidth=2;" vertex="1" parent="1">
          <mxGeometry x="-1180" y="338" width="120" height="40" as="geometry" />
        </mxCell>
        <mxCell id="cl8IE2r-ji0NroWe0n9R-28" value="" style="edgeStyle=orthogonalEdgeStyle;html=1;verticalAlign=bottom;endArrow=open;endSize=8;strokeColor=#6c8ebf;rounded=0;entryX=0.5;entryY=0;entryDx=0;entryDy=0;exitX=0.984;exitY=0.868;exitDx=0;exitDy=0;exitPerimeter=0;fillColor=#dae8fc;strokeWidth=2;" edge="1" parent="1" target="cl8IE2r-ji0NroWe0n9R-27">
          <mxGeometry relative="1" as="geometry">
            <mxPoint x="-1132" y="338" as="targetPoint" />
            <mxPoint x="-1120.28" y="306.67999999999984" as="sourcePoint" />
          </mxGeometry>
        </mxCell>
        <mxCell id="cl8IE2r-ji0NroWe0n9R-29" value="" style="edgeStyle=orthogonalEdgeStyle;html=1;verticalAlign=bottom;endArrow=open;endSize=8;strokeColor=#6c8ebf;rounded=0;fillColor=#dae8fc;strokeWidth=2;" edge="1" parent="1">
          <mxGeometry relative="1" as="geometry">
            <mxPoint x="-1285" y="338" as="targetPoint" />
            <mxPoint x="-1285" y="308" as="sourcePoint" />
          </mxGeometry>
        </mxCell>
        <mxCell id="cl8IE2r-ji0NroWe0n9R-31" value="" style="edgeStyle=orthogonalEdgeStyle;html=1;verticalAlign=bottom;endArrow=open;endSize=8;strokeColor=#6c8ebf;rounded=0;exitX=0.013;exitY=0.826;exitDx=0;exitDy=0;exitPerimeter=0;fillColor=#dae8fc;strokeWidth=2;" edge="1" parent="1">
          <mxGeometry relative="1" as="geometry">
            <mxPoint x="-1440.74" y="410" as="targetPoint" />
            <mxPoint x="-1439.74" y="378" as="sourcePoint" />
            <Array as="points">
              <mxPoint x="-1441" y="378" />
              <mxPoint x="-1441" y="395" />
            </Array>
          </mxGeometry>
        </mxCell>
        <mxCell id="cl8IE2r-ji0NroWe0n9R-32" value="" style="edgeStyle=orthogonalEdgeStyle;html=1;verticalAlign=bottom;endArrow=open;endSize=8;strokeColor=#6c8ebf;rounded=0;exitX=0.013;exitY=0.826;exitDx=0;exitDy=0;exitPerimeter=0;fillColor=#dae8fc;strokeWidth=2;" edge="1" parent="1">
          <mxGeometry relative="1" as="geometry">
            <mxPoint x="-1285.37" y="410" as="targetPoint" />
            <mxPoint x="-1284.37" y="378" as="sourcePoint" />
            <Array as="points">
              <mxPoint x="-1285.63" y="378" />
              <mxPoint x="-1285.63" y="395" />
            </Array>
          </mxGeometry>
        </mxCell>
        <mxCell id="cl8IE2r-ji0NroWe0n9R-33" value="" style="edgeStyle=orthogonalEdgeStyle;html=1;verticalAlign=bottom;endArrow=open;endSize=8;strokeColor=#6c8ebf;rounded=0;exitX=0.013;exitY=0.826;exitDx=0;exitDy=0;exitPerimeter=0;fillColor=#dae8fc;strokeWidth=2;" edge="1" parent="1">
          <mxGeometry relative="1" as="geometry">
            <mxPoint x="-1120.37" y="410" as="targetPoint" />
            <mxPoint x="-1119.37" y="378" as="sourcePoint" />
            <Array as="points">
              <mxPoint x="-1120.63" y="378" />
              <mxPoint x="-1120.63" y="395" />
            </Array>
          </mxGeometry>
        </mxCell>
        <mxCell id="cl8IE2r-ji0NroWe0n9R-34" value="" style="edgeStyle=orthogonalEdgeStyle;html=1;verticalAlign=bottom;endArrow=open;endSize=8;strokeColor=#6c8ebf;rounded=0;exitX=0.013;exitY=0.826;exitDx=0;exitDy=0;exitPerimeter=0;fillColor=#dae8fc;strokeWidth=2;" edge="1" parent="1">
          <mxGeometry relative="1" as="geometry">
            <mxPoint x="-1440.37" y="338" as="targetPoint" />
            <mxPoint x="-1439.37" y="306" as="sourcePoint" />
            <Array as="points">
              <mxPoint x="-1440.63" y="306" />
              <mxPoint x="-1440.63" y="323" />
            </Array>
          </mxGeometry>
        </mxCell>
        <mxCell id="cl8IE2r-ji0NroWe0n9R-35" value="Define Parameter Grid" style="rounded=1;whiteSpace=wrap;html=1;arcSize=40;fillColor=#dae8fc;strokeColor=#6c8ebf;strokeWidth=2;" vertex="1" parent="1">
          <mxGeometry x="-1500" y="268" width="120" height="40" as="geometry" />
        </mxCell>
        <mxCell id="cl8IE2r-ji0NroWe0n9R-36" value="Define Parameter Distribution" style="rounded=1;whiteSpace=wrap;html=1;arcSize=40;fillColor=#dae8fc;strokeColor=#6c8ebf;strokeWidth=2;" vertex="1" parent="1">
          <mxGeometry x="-1345" y="268" width="120" height="40" as="geometry" />
        </mxCell>
        <mxCell id="cl8IE2r-ji0NroWe0n9R-37" value="Log Search Space" style="rounded=1;whiteSpace=wrap;html=1;arcSize=40;fillColor=#dae8fc;strokeColor=#6c8ebf;strokeWidth=2;" vertex="1" parent="1">
          <mxGeometry x="-1180" y="268" width="120" height="40" as="geometry" />
        </mxCell>
        <mxCell id="cl8IE2r-ji0NroWe0n9R-38" value="" style="shape=line;html=1;strokeWidth=2;strokeColor=#6c8ebf;fillColor=#dae8fc;" vertex="1" parent="1">
          <mxGeometry x="-1453" y="158" width="350" height="10" as="geometry" />
        </mxCell>
        <mxCell id="cl8IE2r-ji0NroWe0n9R-39" value="" style="edgeStyle=orthogonalEdgeStyle;html=1;verticalAlign=bottom;endArrow=open;endSize=8;strokeColor=#6c8ebf;rounded=0;exitX=0.013;exitY=0.826;exitDx=0;exitDy=0;exitPerimeter=0;fillColor=#dae8fc;strokeWidth=2;" edge="1" parent="1">
          <mxGeometry relative="1" as="geometry">
            <mxPoint x="-1440.58" y="268" as="targetPoint" />
            <mxPoint x="-1439.58" y="236" as="sourcePoint" />
            <Array as="points">
              <mxPoint x="-1440.8400000000001" y="236" />
              <mxPoint x="-1440.8400000000001" y="253" />
            </Array>
          </mxGeometry>
        </mxCell>
        <mxCell id="cl8IE2r-ji0NroWe0n9R-40" value="" style="edgeStyle=orthogonalEdgeStyle;html=1;verticalAlign=bottom;endArrow=open;endSize=8;strokeColor=#6c8ebf;rounded=0;exitX=0.013;exitY=0.826;exitDx=0;exitDy=0;exitPerimeter=0;fillColor=#dae8fc;strokeWidth=2;" edge="1" parent="1">
          <mxGeometry relative="1" as="geometry">
            <mxPoint x="-1285.21" y="268" as="targetPoint" />
            <mxPoint x="-1284.21" y="236" as="sourcePoint" />
            <Array as="points">
              <mxPoint x="-1285.47" y="236" />
              <mxPoint x="-1285.47" y="253" />
            </Array>
          </mxGeometry>
        </mxCell>
        <mxCell id="cl8IE2r-ji0NroWe0n9R-41" value="" style="edgeStyle=orthogonalEdgeStyle;html=1;verticalAlign=bottom;endArrow=open;endSize=8;strokeColor=#6c8ebf;rounded=0;exitX=0.013;exitY=0.826;exitDx=0;exitDy=0;exitPerimeter=0;fillColor=#dae8fc;strokeWidth=2;" edge="1" parent="1">
          <mxGeometry relative="1" as="geometry">
            <mxPoint x="-1120.21" y="268" as="targetPoint" />
            <mxPoint x="-1119.21" y="236" as="sourcePoint" />
            <Array as="points">
              <mxPoint x="-1120.47" y="236" />
              <mxPoint x="-1120.47" y="253" />
            </Array>
          </mxGeometry>
        </mxCell>
        <mxCell id="cl8IE2r-ji0NroWe0n9R-42" value="Inizialize Neptune Run for GridSearch" style="rounded=1;whiteSpace=wrap;html=1;arcSize=40;fillColor=#dae8fc;strokeColor=#6c8ebf;strokeWidth=2;" vertex="1" parent="1">
          <mxGeometry x="-1500" y="200" width="120" height="40" as="geometry" />
        </mxCell>
        <mxCell id="cl8IE2r-ji0NroWe0n9R-43" value="Inizialize Neptune Run for Random Search" style="rounded=1;whiteSpace=wrap;html=1;arcSize=40;fillColor=#dae8fc;strokeColor=#6c8ebf;strokeWidth=2;" vertex="1" parent="1">
          <mxGeometry x="-1345" y="200" width="120" height="40" as="geometry" />
        </mxCell>
        <mxCell id="cl8IE2r-ji0NroWe0n9R-44" value="Inizialize Neptune Run for Optuna" style="rounded=1;whiteSpace=wrap;html=1;arcSize=40;fillColor=#dae8fc;strokeColor=#6c8ebf;strokeWidth=2;" vertex="1" parent="1">
          <mxGeometry x="-1180" y="200" width="120" height="40" as="geometry" />
        </mxCell>
        <mxCell id="cl8IE2r-ji0NroWe0n9R-45" value="" style="edgeStyle=orthogonalEdgeStyle;html=1;verticalAlign=bottom;endArrow=open;endSize=8;strokeColor=#6c8ebf;rounded=0;exitX=0.013;exitY=0.826;exitDx=0;exitDy=0;exitPerimeter=0;fillColor=#dae8fc;strokeWidth=2;" edge="1" parent="1">
          <mxGeometry relative="1" as="geometry">
            <mxPoint x="-1440.58" y="200" as="targetPoint" />
            <mxPoint x="-1439.58" y="168" as="sourcePoint" />
            <Array as="points">
              <mxPoint x="-1440.8400000000001" y="168" />
              <mxPoint x="-1440.8400000000001" y="185" />
            </Array>
          </mxGeometry>
        </mxCell>
        <mxCell id="cl8IE2r-ji0NroWe0n9R-46" value="" style="edgeStyle=orthogonalEdgeStyle;html=1;verticalAlign=bottom;endArrow=open;endSize=8;strokeColor=#6c8ebf;rounded=0;exitX=0.013;exitY=0.826;exitDx=0;exitDy=0;exitPerimeter=0;fillColor=#dae8fc;strokeWidth=2;" edge="1" parent="1">
          <mxGeometry relative="1" as="geometry">
            <mxPoint x="-1285.21" y="200" as="targetPoint" />
            <mxPoint x="-1284.21" y="168" as="sourcePoint" />
            <Array as="points">
              <mxPoint x="-1285.47" y="168" />
              <mxPoint x="-1285.47" y="185" />
            </Array>
          </mxGeometry>
        </mxCell>
        <mxCell id="cl8IE2r-ji0NroWe0n9R-47" value="" style="edgeStyle=orthogonalEdgeStyle;html=1;verticalAlign=bottom;endArrow=open;endSize=8;strokeColor=#6c8ebf;rounded=0;exitX=0.013;exitY=0.826;exitDx=0;exitDy=0;exitPerimeter=0;fillColor=#dae8fc;strokeWidth=2;" edge="1" parent="1">
          <mxGeometry relative="1" as="geometry">
            <mxPoint x="-1120.21" y="200" as="targetPoint" />
            <mxPoint x="-1119.21" y="168" as="sourcePoint" />
            <Array as="points">
              <mxPoint x="-1120.47" y="168" />
              <mxPoint x="-1120.47" y="185" />
            </Array>
          </mxGeometry>
        </mxCell>
        <mxCell id="cl8IE2r-ji0NroWe0n9R-48" value="Log Best Parameters and Score" style="rounded=1;whiteSpace=wrap;html=1;arcSize=40;fillColor=#dae8fc;strokeColor=#6c8ebf;strokeWidth=2;" vertex="1" parent="1">
          <mxGeometry x="-1500" y="546" width="120" height="40" as="geometry" />
        </mxCell>
        <mxCell id="cl8IE2r-ji0NroWe0n9R-49" value="" style="edgeStyle=orthogonalEdgeStyle;html=1;verticalAlign=bottom;endArrow=open;endSize=8;strokeColor=#6c8ebf;rounded=0;fillColor=#dae8fc;strokeWidth=2;" edge="1" parent="1">
          <mxGeometry relative="1" as="geometry">
            <mxPoint x="-1440" y="546" as="targetPoint" />
            <mxPoint x="-1440" y="516" as="sourcePoint" />
          </mxGeometry>
        </mxCell>
        <mxCell id="cl8IE2r-ji0NroWe0n9R-50" value="" style="edgeStyle=orthogonalEdgeStyle;html=1;verticalAlign=bottom;endArrow=open;endSize=8;strokeColor=#6c8ebf;rounded=0;exitX=0.013;exitY=0.826;exitDx=0;exitDy=0;exitPerimeter=0;fillColor=#dae8fc;strokeWidth=2;" edge="1" parent="1">
          <mxGeometry relative="1" as="geometry">
            <mxPoint x="-1440.37" y="618" as="targetPoint" />
            <mxPoint x="-1439.37" y="586" as="sourcePoint" />
            <Array as="points">
              <mxPoint x="-1440.63" y="586" />
              <mxPoint x="-1440.63" y="603" />
            </Array>
          </mxGeometry>
        </mxCell>
        <mxCell id="cl8IE2r-ji0NroWe0n9R-51" value="Fit to Training Data" style="rounded=1;whiteSpace=wrap;html=1;arcSize=40;fillColor=#dae8fc;strokeColor=#6c8ebf;strokeWidth=2;" vertex="1" parent="1">
          <mxGeometry x="-1500" y="476" width="120" height="40" as="geometry" />
        </mxCell>
        <mxCell id="cl8IE2r-ji0NroWe0n9R-52" value="" style="edgeStyle=orthogonalEdgeStyle;html=1;verticalAlign=bottom;endArrow=open;endSize=8;strokeColor=#6c8ebf;rounded=0;exitX=0.013;exitY=0.826;exitDx=0;exitDy=0;exitPerimeter=0;fillColor=#dae8fc;strokeWidth=2;" edge="1" parent="1">
          <mxGeometry relative="1" as="geometry">
            <mxPoint x="-1440.21" y="476" as="targetPoint" />
            <mxPoint x="-1439.21" y="444" as="sourcePoint" />
            <Array as="points">
              <mxPoint x="-1440.47" y="444" />
              <mxPoint x="-1440.47" y="461" />
            </Array>
          </mxGeometry>
        </mxCell>
        <mxCell id="cl8IE2r-ji0NroWe0n9R-53" value="Create GridSearch Object" style="rounded=1;whiteSpace=wrap;html=1;arcSize=40;fillColor=#dae8fc;strokeColor=#6c8ebf;strokeWidth=2;" vertex="1" parent="1">
          <mxGeometry x="-1500" y="408" width="120" height="40" as="geometry" />
        </mxCell>
        <mxCell id="cl8IE2r-ji0NroWe0n9R-54" value="Log all CV Results" style="rounded=1;whiteSpace=wrap;html=1;arcSize=40;fillColor=#dae8fc;strokeColor=#6c8ebf;strokeWidth=2;" vertex="1" parent="1">
          <mxGeometry x="-1500" y="688" width="120" height="40" as="geometry" />
        </mxCell>
        <mxCell id="cl8IE2r-ji0NroWe0n9R-55" value="" style="edgeStyle=orthogonalEdgeStyle;html=1;verticalAlign=bottom;endArrow=open;endSize=8;strokeColor=#6c8ebf;rounded=0;fillColor=#dae8fc;strokeWidth=2;" edge="1" parent="1">
          <mxGeometry relative="1" as="geometry">
            <mxPoint x="-1440" y="688" as="targetPoint" />
            <mxPoint x="-1440" y="658" as="sourcePoint" />
          </mxGeometry>
        </mxCell>
        <mxCell id="cl8IE2r-ji0NroWe0n9R-56" value="Get Best Model" style="rounded=1;whiteSpace=wrap;html=1;arcSize=40;fillColor=#dae8fc;strokeColor=#6c8ebf;strokeWidth=2;" vertex="1" parent="1">
          <mxGeometry x="-1500" y="618" width="120" height="40" as="geometry" />
        </mxCell>
        <mxCell id="cl8IE2r-ji0NroWe0n9R-57" value="Evaluate Best Model" style="rounded=1;whiteSpace=wrap;html=1;arcSize=40;fillColor=#dae8fc;strokeColor=#6c8ebf;strokeWidth=2;" vertex="1" parent="1">
          <mxGeometry x="-1500" y="758" width="120" height="40" as="geometry" />
        </mxCell>
        <mxCell id="cl8IE2r-ji0NroWe0n9R-58" value="" style="edgeStyle=orthogonalEdgeStyle;html=1;verticalAlign=bottom;endArrow=open;endSize=8;strokeColor=#6c8ebf;rounded=0;fillColor=#dae8fc;strokeWidth=2;" edge="1" parent="1">
          <mxGeometry relative="1" as="geometry">
            <mxPoint x="-1440" y="758" as="targetPoint" />
            <mxPoint x="-1440" y="728" as="sourcePoint" />
          </mxGeometry>
        </mxCell>
        <mxCell id="cl8IE2r-ji0NroWe0n9R-59" value="Log Best Parameters and Score" style="rounded=1;whiteSpace=wrap;html=1;arcSize=40;fillColor=#dae8fc;strokeColor=#6c8ebf;strokeWidth=2;" vertex="1" parent="1">
          <mxGeometry x="-1345" y="546" width="120" height="40" as="geometry" />
        </mxCell>
        <mxCell id="cl8IE2r-ji0NroWe0n9R-60" value="" style="edgeStyle=orthogonalEdgeStyle;html=1;verticalAlign=bottom;endArrow=open;endSize=8;strokeColor=#6c8ebf;rounded=0;fillColor=#dae8fc;strokeWidth=2;" edge="1" parent="1">
          <mxGeometry relative="1" as="geometry">
            <mxPoint x="-1285" y="546" as="targetPoint" />
            <mxPoint x="-1285" y="516" as="sourcePoint" />
          </mxGeometry>
        </mxCell>
        <mxCell id="cl8IE2r-ji0NroWe0n9R-61" value="" style="edgeStyle=orthogonalEdgeStyle;html=1;verticalAlign=bottom;endArrow=open;endSize=8;strokeColor=#6c8ebf;rounded=0;exitX=0.013;exitY=0.826;exitDx=0;exitDy=0;exitPerimeter=0;fillColor=#dae8fc;strokeWidth=2;" edge="1" parent="1">
          <mxGeometry relative="1" as="geometry">
            <mxPoint x="-1285.37" y="618" as="targetPoint" />
            <mxPoint x="-1284.37" y="586" as="sourcePoint" />
            <Array as="points">
              <mxPoint x="-1285.63" y="586" />
              <mxPoint x="-1285.63" y="603" />
            </Array>
          </mxGeometry>
        </mxCell>
        <mxCell id="cl8IE2r-ji0NroWe0n9R-62" value="Fit to Training Data" style="rounded=1;whiteSpace=wrap;html=1;arcSize=40;fillColor=#dae8fc;strokeColor=#6c8ebf;strokeWidth=2;" vertex="1" parent="1">
          <mxGeometry x="-1345" y="476" width="120" height="40" as="geometry" />
        </mxCell>
        <mxCell id="cl8IE2r-ji0NroWe0n9R-63" value="" style="edgeStyle=orthogonalEdgeStyle;html=1;verticalAlign=bottom;endArrow=open;endSize=8;strokeColor=#6c8ebf;rounded=0;exitX=0.013;exitY=0.826;exitDx=0;exitDy=0;exitPerimeter=0;fillColor=#dae8fc;strokeWidth=2;" edge="1" parent="1">
          <mxGeometry relative="1" as="geometry">
            <mxPoint x="-1285.21" y="476" as="targetPoint" />
            <mxPoint x="-1284.21" y="444" as="sourcePoint" />
            <Array as="points">
              <mxPoint x="-1285.47" y="444" />
              <mxPoint x="-1285.47" y="461" />
            </Array>
          </mxGeometry>
        </mxCell>
        <mxCell id="cl8IE2r-ji0NroWe0n9R-64" value="Create RandomizedSearchCV Object" style="rounded=1;whiteSpace=wrap;html=1;arcSize=40;fillColor=#dae8fc;strokeColor=#6c8ebf;strokeWidth=2;" vertex="1" parent="1">
          <mxGeometry x="-1345" y="408" width="120" height="40" as="geometry" />
        </mxCell>
        <mxCell id="cl8IE2r-ji0NroWe0n9R-65" value="Log all CV Results" style="rounded=1;whiteSpace=wrap;html=1;arcSize=40;fillColor=#dae8fc;strokeColor=#6c8ebf;strokeWidth=2;" vertex="1" parent="1">
          <mxGeometry x="-1345" y="688" width="120" height="40" as="geometry" />
        </mxCell>
        <mxCell id="cl8IE2r-ji0NroWe0n9R-66" value="" style="edgeStyle=orthogonalEdgeStyle;html=1;verticalAlign=bottom;endArrow=open;endSize=8;strokeColor=#6c8ebf;rounded=0;fillColor=#dae8fc;strokeWidth=2;" edge="1" parent="1">
          <mxGeometry relative="1" as="geometry">
            <mxPoint x="-1285" y="688" as="targetPoint" />
            <mxPoint x="-1285" y="658" as="sourcePoint" />
          </mxGeometry>
        </mxCell>
        <mxCell id="cl8IE2r-ji0NroWe0n9R-67" value="Get Best Model" style="rounded=1;whiteSpace=wrap;html=1;arcSize=40;fillColor=#dae8fc;strokeColor=#6c8ebf;strokeWidth=2;" vertex="1" parent="1">
          <mxGeometry x="-1345" y="618" width="120" height="40" as="geometry" />
        </mxCell>
        <mxCell id="cl8IE2r-ji0NroWe0n9R-68" value="Evaluate Best Model" style="rounded=1;whiteSpace=wrap;html=1;arcSize=40;fillColor=#dae8fc;strokeColor=#6c8ebf;strokeWidth=2;" vertex="1" parent="1">
          <mxGeometry x="-1345" y="758" width="120" height="40" as="geometry" />
        </mxCell>
        <mxCell id="cl8IE2r-ji0NroWe0n9R-69" value="" style="edgeStyle=orthogonalEdgeStyle;html=1;verticalAlign=bottom;endArrow=open;endSize=8;strokeColor=#6c8ebf;rounded=0;fillColor=#dae8fc;strokeWidth=2;" edge="1" parent="1">
          <mxGeometry relative="1" as="geometry">
            <mxPoint x="-1285" y="758" as="targetPoint" />
            <mxPoint x="-1285" y="728" as="sourcePoint" />
          </mxGeometry>
        </mxCell>
        <mxCell id="cl8IE2r-ji0NroWe0n9R-70" value="" style="edgeStyle=orthogonalEdgeStyle;html=1;verticalAlign=bottom;endArrow=open;endSize=8;strokeColor=#6c8ebf;rounded=0;exitX=0.013;exitY=0.826;exitDx=0;exitDy=0;exitPerimeter=0;fillColor=#dae8fc;strokeWidth=2;" edge="1" parent="1">
          <mxGeometry relative="1" as="geometry">
            <mxPoint x="-1285.37" y="830" as="targetPoint" />
            <mxPoint x="-1284.37" y="798" as="sourcePoint" />
            <Array as="points">
              <mxPoint x="-1285.63" y="798" />
              <mxPoint x="-1285.63" y="815" />
            </Array>
          </mxGeometry>
        </mxCell>
        <mxCell id="cl8IE2r-ji0NroWe0n9R-71" value="Compute Feature Importance for Best Model" style="rounded=1;whiteSpace=wrap;html=1;arcSize=40;fillColor=#dae8fc;strokeColor=#6c8ebf;strokeWidth=2;" vertex="1" parent="1">
          <mxGeometry x="-1345" y="900" width="120" height="40" as="geometry" />
        </mxCell>
        <mxCell id="cl8IE2r-ji0NroWe0n9R-72" value="" style="edgeStyle=orthogonalEdgeStyle;html=1;verticalAlign=bottom;endArrow=open;endSize=8;strokeColor=#6c8ebf;rounded=0;fillColor=#dae8fc;strokeWidth=2;" edge="1" parent="1">
          <mxGeometry relative="1" as="geometry">
            <mxPoint x="-1285" y="900" as="targetPoint" />
            <mxPoint x="-1285" y="870" as="sourcePoint" />
          </mxGeometry>
        </mxCell>
        <mxCell id="cl8IE2r-ji0NroWe0n9R-73" value="Create Comparison Plot of Different Parameter Combinations" style="rounded=1;whiteSpace=wrap;html=1;arcSize=40;fillColor=#dae8fc;strokeColor=#6c8ebf;strokeWidth=2;" vertex="1" parent="1">
          <mxGeometry x="-1362.87" y="830" width="155.75" height="40" as="geometry" />
        </mxCell>
        <mxCell id="cl8IE2r-ji0NroWe0n9R-74" value="Log Feature Importance Values" style="rounded=1;whiteSpace=wrap;html=1;arcSize=40;fillColor=#dae8fc;strokeColor=#6c8ebf;strokeWidth=2;" vertex="1" parent="1">
          <mxGeometry x="-1345" y="970" width="120" height="40" as="geometry" />
        </mxCell>
        <mxCell id="cl8IE2r-ji0NroWe0n9R-75" value="" style="edgeStyle=orthogonalEdgeStyle;html=1;verticalAlign=bottom;endArrow=open;endSize=8;strokeColor=#6c8ebf;rounded=0;fillColor=#dae8fc;strokeWidth=2;" edge="1" parent="1">
          <mxGeometry relative="1" as="geometry">
            <mxPoint x="-1285" y="970" as="targetPoint" />
            <mxPoint x="-1285" y="940" as="sourcePoint" />
          </mxGeometry>
        </mxCell>
        <mxCell id="cl8IE2r-ji0NroWe0n9R-76" value="Log Trial Results to Neptune" style="rounded=1;whiteSpace=wrap;html=1;arcSize=40;fillColor=#dae8fc;strokeColor=#6c8ebf;strokeWidth=2;" vertex="1" parent="1">
          <mxGeometry x="-1180" y="478" width="120" height="40" as="geometry" />
        </mxCell>
        <mxCell id="cl8IE2r-ji0NroWe0n9R-77" value="" style="edgeStyle=orthogonalEdgeStyle;html=1;verticalAlign=bottom;endArrow=open;endSize=8;strokeColor=#6c8ebf;rounded=0;fillColor=#dae8fc;strokeWidth=2;" edge="1" parent="1">
          <mxGeometry relative="1" as="geometry">
            <mxPoint x="-1120" y="478" as="targetPoint" />
            <mxPoint x="-1120" y="448" as="sourcePoint" />
          </mxGeometry>
        </mxCell>
        <mxCell id="cl8IE2r-ji0NroWe0n9R-78" value="" style="edgeStyle=orthogonalEdgeStyle;html=1;verticalAlign=bottom;endArrow=open;endSize=8;strokeColor=#6c8ebf;rounded=0;exitX=0.013;exitY=0.826;exitDx=0;exitDy=0;exitPerimeter=0;fillColor=#dae8fc;strokeWidth=2;" edge="1" parent="1">
          <mxGeometry relative="1" as="geometry">
            <mxPoint x="-1120.37" y="550" as="targetPoint" />
            <mxPoint x="-1119.37" y="518" as="sourcePoint" />
            <Array as="points">
              <mxPoint x="-1120.63" y="518" />
              <mxPoint x="-1120.63" y="535" />
            </Array>
          </mxGeometry>
        </mxCell>
        <mxCell id="cl8IE2r-ji0NroWe0n9R-79" value="Create and Evaluate Model" style="rounded=1;whiteSpace=wrap;html=1;arcSize=40;fillColor=#dae8fc;strokeColor=#6c8ebf;strokeWidth=2;" vertex="1" parent="1">
          <mxGeometry x="-1180" y="408" width="120" height="40" as="geometry" />
        </mxCell>
        <mxCell id="cl8IE2r-ji0NroWe0n9R-80" value="Create Best Model with Optimal Parameters" style="rounded=1;whiteSpace=wrap;html=1;arcSize=40;fillColor=#dae8fc;strokeColor=#6c8ebf;strokeWidth=2;" vertex="1" parent="1">
          <mxGeometry x="-1180" y="686" width="120" height="40" as="geometry" />
        </mxCell>
        <mxCell id="cl8IE2r-ji0NroWe0n9R-81" value="" style="edgeStyle=orthogonalEdgeStyle;html=1;verticalAlign=bottom;endArrow=open;endSize=8;strokeColor=#6c8ebf;rounded=0;fillColor=#dae8fc;strokeWidth=2;" edge="1" parent="1">
          <mxGeometry relative="1" as="geometry">
            <mxPoint x="-1120" y="686" as="targetPoint" />
            <mxPoint x="-1120" y="656" as="sourcePoint" />
          </mxGeometry>
        </mxCell>
        <mxCell id="cl8IE2r-ji0NroWe0n9R-82" value="" style="edgeStyle=orthogonalEdgeStyle;html=1;verticalAlign=bottom;endArrow=open;endSize=8;strokeColor=#6c8ebf;rounded=0;exitX=0.013;exitY=0.826;exitDx=0;exitDy=0;exitPerimeter=0;fillColor=#dae8fc;strokeWidth=2;" edge="1" parent="1">
          <mxGeometry relative="1" as="geometry">
            <mxPoint x="-1120.37" y="758" as="targetPoint" />
            <mxPoint x="-1119.37" y="726" as="sourcePoint" />
            <Array as="points">
              <mxPoint x="-1120.63" y="726" />
              <mxPoint x="-1120.63" y="743" />
            </Array>
          </mxGeometry>
        </mxCell>
        <mxCell id="cl8IE2r-ji0NroWe0n9R-83" value="Log Best Results" style="rounded=1;whiteSpace=wrap;html=1;arcSize=40;fillColor=#dae8fc;strokeColor=#6c8ebf;strokeWidth=2;" vertex="1" parent="1">
          <mxGeometry x="-1180" y="616" width="120" height="40" as="geometry" />
        </mxCell>
        <mxCell id="cl8IE2r-ji0NroWe0n9R-84" value="" style="edgeStyle=orthogonalEdgeStyle;html=1;verticalAlign=bottom;endArrow=open;endSize=8;strokeColor=#6c8ebf;rounded=0;exitX=0.013;exitY=0.826;exitDx=0;exitDy=0;exitPerimeter=0;fillColor=#dae8fc;strokeWidth=2;" edge="1" parent="1">
          <mxGeometry relative="1" as="geometry">
            <mxPoint x="-1120.21" y="616" as="targetPoint" />
            <mxPoint x="-1119.21" y="584" as="sourcePoint" />
            <Array as="points">
              <mxPoint x="-1120.47" y="584" />
              <mxPoint x="-1120.47" y="601" />
            </Array>
          </mxGeometry>
        </mxCell>
        <mxCell id="cl8IE2r-ji0NroWe0n9R-85" value="Create and Run Optuna Study" style="rounded=1;whiteSpace=wrap;html=1;arcSize=40;fillColor=#dae8fc;strokeColor=#6c8ebf;strokeWidth=2;" vertex="1" parent="1">
          <mxGeometry x="-1180" y="548" width="120" height="40" as="geometry" />
        </mxCell>
        <mxCell id="cl8IE2r-ji0NroWe0n9R-86" value="Evaluate Best Model" style="rounded=1;whiteSpace=wrap;html=1;arcSize=40;fillColor=#dae8fc;strokeColor=#6c8ebf;strokeWidth=2;" vertex="1" parent="1">
          <mxGeometry x="-1180" y="758" width="120" height="40" as="geometry" />
        </mxCell>
        <mxCell id="cl8IE2r-ji0NroWe0n9R-87" value="" style="edgeStyle=orthogonalEdgeStyle;html=1;verticalAlign=bottom;endArrow=open;endSize=8;strokeColor=#6c8ebf;rounded=0;exitX=0.013;exitY=0.826;exitDx=0;exitDy=0;exitPerimeter=0;fillColor=#dae8fc;strokeWidth=2;" edge="1" parent="1">
          <mxGeometry relative="1" as="geometry">
            <mxPoint x="-1120.37" y="830" as="targetPoint" />
            <mxPoint x="-1119.37" y="798" as="sourcePoint" />
            <Array as="points">
              <mxPoint x="-1120.63" y="798" />
              <mxPoint x="-1120.63" y="815" />
            </Array>
          </mxGeometry>
        </mxCell>
        <mxCell id="cl8IE2r-ji0NroWe0n9R-88" value="Plot Parameter Importances" style="rounded=1;whiteSpace=wrap;html=1;arcSize=40;fillColor=#dae8fc;strokeColor=#6c8ebf;strokeWidth=2;" vertex="1" parent="1">
          <mxGeometry x="-1180" y="900" width="120" height="40" as="geometry" />
        </mxCell>
        <mxCell id="cl8IE2r-ji0NroWe0n9R-89" value="" style="edgeStyle=orthogonalEdgeStyle;html=1;verticalAlign=bottom;endArrow=open;endSize=8;strokeColor=#6c8ebf;rounded=0;fillColor=#dae8fc;strokeWidth=2;" edge="1" parent="1">
          <mxGeometry relative="1" as="geometry">
            <mxPoint x="-1120" y="900" as="targetPoint" />
            <mxPoint x="-1120" y="870" as="sourcePoint" />
          </mxGeometry>
        </mxCell>
        <mxCell id="cl8IE2r-ji0NroWe0n9R-90" value="Plot Optimization History" style="rounded=1;whiteSpace=wrap;html=1;arcSize=40;fillColor=#dae8fc;strokeColor=#6c8ebf;strokeWidth=2;" vertex="1" parent="1">
          <mxGeometry x="-1180" y="830" width="120" height="40" as="geometry" />
        </mxCell>
        <mxCell id="cl8IE2r-ji0NroWe0n9R-91" value="Log Parameter Importances" style="rounded=1;whiteSpace=wrap;html=1;arcSize=40;fillColor=#dae8fc;strokeColor=#6c8ebf;strokeWidth=2;" vertex="1" parent="1">
          <mxGeometry x="-1180" y="970" width="120" height="40" as="geometry" />
        </mxCell>
        <mxCell id="cl8IE2r-ji0NroWe0n9R-92" value="" style="edgeStyle=orthogonalEdgeStyle;html=1;verticalAlign=bottom;endArrow=open;endSize=8;strokeColor=#6c8ebf;rounded=0;fillColor=#dae8fc;strokeWidth=2;" edge="1" parent="1">
          <mxGeometry relative="1" as="geometry">
            <mxPoint x="-1120" y="970" as="targetPoint" />
            <mxPoint x="-1120" y="940" as="sourcePoint" />
          </mxGeometry>
        </mxCell>
        <mxCell id="cl8IE2r-ji0NroWe0n9R-94" value="" style="edgeStyle=orthogonalEdgeStyle;html=1;verticalAlign=bottom;endArrow=open;endSize=8;strokeColor=#6c8ebf;rounded=0;fillColor=#dae8fc;strokeWidth=2;entryX=0;entryY=0.5;entryDx=0;entryDy=0;" edge="1" parent="1" target="cl8IE2r-ji0NroWe0n9R-97">
          <mxGeometry relative="1" as="geometry">
            <mxPoint x="-1364.5" y="1058" as="targetPoint" />
            <mxPoint x="-1440.48" y="798" as="sourcePoint" />
            <Array as="points">
              <mxPoint x="-1444.5" y="799" />
              <mxPoint x="-1444.5" y="1058" />
            </Array>
          </mxGeometry>
        </mxCell>
        <mxCell id="cl8IE2r-ji0NroWe0n9R-95" value="" style="edgeStyle=orthogonalEdgeStyle;html=1;verticalAlign=bottom;endArrow=open;endSize=8;strokeColor=#6c8ebf;rounded=0;fillColor=#dae8fc;strokeWidth=2;" edge="1" parent="1">
          <mxGeometry relative="1" as="geometry">
            <mxPoint x="-1285.47" y="1040" as="targetPoint" />
            <mxPoint x="-1285.47" y="1010" as="sourcePoint" />
          </mxGeometry>
        </mxCell>
        <mxCell id="cl8IE2r-ji0NroWe0n9R-96" value="" style="edgeStyle=orthogonalEdgeStyle;html=1;verticalAlign=bottom;endArrow=open;endSize=8;strokeColor=#6c8ebf;rounded=0;fillColor=#dae8fc;strokeWidth=2;entryX=1;entryY=0.5;entryDx=0;entryDy=0;" edge="1" parent="1" target="cl8IE2r-ji0NroWe0n9R-97">
          <mxGeometry relative="1" as="geometry">
            <mxPoint x="-1114.5" y="1138" as="targetPoint" />
            <mxPoint x="-1120.48" y="1010" as="sourcePoint" />
            <Array as="points">
              <mxPoint x="-1120.5" y="1058" />
            </Array>
          </mxGeometry>
        </mxCell>
        <mxCell id="cl8IE2r-ji0NroWe0n9R-97" value="Stop Neptune Runs" style="rounded=1;whiteSpace=wrap;html=1;arcSize=40;fillColor=#dae8fc;strokeColor=#6c8ebf;strokeWidth=2;" vertex="1" parent="1">
          <mxGeometry x="-1345" y="1038" width="120" height="40" as="geometry" />
        </mxCell>
        <mxCell id="cl8IE2r-ji0NroWe0n9R-99" value="Define Each Parameter Set" style="rounded=1;whiteSpace=wrap;html=1;arcSize=40;fillColor=#dae8fc;strokeColor=#6c8ebf;strokeWidth=2;" vertex="1" parent="1">
          <mxGeometry x="-1345" y="1108" width="120" height="40" as="geometry" />
        </mxCell>
        <mxCell id="cl8IE2r-ji0NroWe0n9R-100" value="" style="edgeStyle=orthogonalEdgeStyle;html=1;verticalAlign=bottom;endArrow=open;endSize=8;strokeColor=#6c8ebf;rounded=0;fillColor=#dae8fc;strokeWidth=2;" edge="1" parent="1">
          <mxGeometry relative="1" as="geometry">
            <mxPoint x="-1285" y="1108" as="targetPoint" />
            <mxPoint x="-1285" y="1078" as="sourcePoint" />
          </mxGeometry>
        </mxCell>
        <mxCell id="cl8IE2r-ji0NroWe0n9R-101" value="" style="edgeStyle=orthogonalEdgeStyle;html=1;verticalAlign=bottom;endArrow=open;endSize=8;strokeColor=#6c8ebf;rounded=0;fillColor=#dae8fc;strokeWidth=2;" edge="1" parent="1">
          <mxGeometry relative="1" as="geometry">
            <mxPoint x="-1285.47" y="1178" as="targetPoint" />
            <mxPoint x="-1285.47" y="1148" as="sourcePoint" />
          </mxGeometry>
        </mxCell>
        <mxCell id="cl8IE2r-ji0NroWe0n9R-102" value="Initialize Models with the Different Parameters Sets" style="rounded=1;whiteSpace=wrap;html=1;arcSize=40;fillColor=#dae8fc;strokeColor=#6c8ebf;strokeWidth=2;" vertex="1" parent="1">
          <mxGeometry x="-1379.99" y="1178" width="190" height="40" as="geometry" />
        </mxCell>
        <mxCell id="cl8IE2r-ji0NroWe0n9R-103" value="" style="edgeStyle=orthogonalEdgeStyle;html=1;verticalAlign=bottom;endArrow=open;endSize=8;strokeColor=#6c8ebf;rounded=0;fillColor=#dae8fc;strokeWidth=2;" edge="1" parent="1">
          <mxGeometry relative="1" as="geometry">
            <mxPoint x="-1285.46" y="1248" as="targetPoint" />
            <mxPoint x="-1285.46" y="1218" as="sourcePoint" />
          </mxGeometry>
        </mxCell>
        <mxCell id="cl8IE2r-ji0NroWe0n9R-104" value="Inizialize Neptune Run for Model Comparison" style="rounded=1;whiteSpace=wrap;html=1;arcSize=40;fillColor=#dae8fc;strokeColor=#6c8ebf;strokeWidth=2;" vertex="1" parent="1">
          <mxGeometry x="-1379.99" y="1246" width="190" height="40" as="geometry" />
        </mxCell>
        <mxCell id="cl8IE2r-ji0NroWe0n9R-105" value="Log Parameters for Each Model" style="rounded=1;whiteSpace=wrap;html=1;arcSize=40;fillColor=#dae8fc;strokeColor=#6c8ebf;strokeWidth=2;" vertex="1" parent="1">
          <mxGeometry x="-1344.99" y="1316" width="120" height="40" as="geometry" />
        </mxCell>
        <mxCell id="cl8IE2r-ji0NroWe0n9R-106" value="" style="edgeStyle=orthogonalEdgeStyle;html=1;verticalAlign=bottom;endArrow=open;endSize=8;strokeColor=#6c8ebf;rounded=0;fillColor=#dae8fc;strokeWidth=2;" edge="1" parent="1">
          <mxGeometry relative="1" as="geometry">
            <mxPoint x="-1284.99" y="1316" as="targetPoint" />
            <mxPoint x="-1284.99" y="1286" as="sourcePoint" />
          </mxGeometry>
        </mxCell>
        <mxCell id="cl8IE2r-ji0NroWe0n9R-107" value="" style="edgeStyle=orthogonalEdgeStyle;html=1;verticalAlign=bottom;endArrow=open;endSize=8;strokeColor=#6c8ebf;rounded=0;fillColor=#dae8fc;strokeWidth=2;" edge="1" parent="1">
          <mxGeometry relative="1" as="geometry">
            <mxPoint x="-1285.46" y="1386" as="targetPoint" />
            <mxPoint x="-1285.46" y="1356" as="sourcePoint" />
          </mxGeometry>
        </mxCell>
        <mxCell id="cl8IE2r-ji0NroWe0n9R-109" value="Calculate Metrics for Each Model" style="rounded=1;whiteSpace=wrap;html=1;arcSize=40;fillColor=#dae8fc;strokeColor=#6c8ebf;strokeWidth=2;" vertex="1" parent="1">
          <mxGeometry x="-1345" y="1526" width="120" height="40" as="geometry" />
        </mxCell>
        <mxCell id="cl8IE2r-ji0NroWe0n9R-110" value="" style="edgeStyle=orthogonalEdgeStyle;html=1;verticalAlign=bottom;endArrow=open;endSize=8;strokeColor=#6c8ebf;rounded=0;fillColor=#dae8fc;strokeWidth=2;" edge="1" parent="1">
          <mxGeometry relative="1" as="geometry">
            <mxPoint x="-1285" y="1526" as="targetPoint" />
            <mxPoint x="-1285" y="1496" as="sourcePoint" />
          </mxGeometry>
        </mxCell>
        <mxCell id="cl8IE2r-ji0NroWe0n9R-111" value="" style="edgeStyle=orthogonalEdgeStyle;html=1;verticalAlign=bottom;endArrow=open;endSize=8;strokeColor=#6c8ebf;rounded=0;exitX=0.013;exitY=0.826;exitDx=0;exitDy=0;exitPerimeter=0;fillColor=#dae8fc;strokeWidth=2;" edge="1" parent="1">
          <mxGeometry relative="1" as="geometry">
            <mxPoint x="-1285.37" y="1598" as="targetPoint" />
            <mxPoint x="-1284.37" y="1566" as="sourcePoint" />
            <Array as="points">
              <mxPoint x="-1285.63" y="1566" />
              <mxPoint x="-1285.63" y="1583" />
            </Array>
          </mxGeometry>
        </mxCell>
        <mxCell id="cl8IE2r-ji0NroWe0n9R-112" value="Make Predictions for Each Model" style="rounded=1;whiteSpace=wrap;html=1;arcSize=40;fillColor=#dae8fc;strokeColor=#6c8ebf;strokeWidth=2;" vertex="1" parent="1">
          <mxGeometry x="-1345" y="1456" width="120" height="40" as="geometry" />
        </mxCell>
        <mxCell id="cl8IE2r-ji0NroWe0n9R-113" value="" style="edgeStyle=orthogonalEdgeStyle;html=1;verticalAlign=bottom;endArrow=open;endSize=8;strokeColor=#6c8ebf;rounded=0;exitX=0.013;exitY=0.826;exitDx=0;exitDy=0;exitPerimeter=0;fillColor=#dae8fc;strokeWidth=2;" edge="1" parent="1">
          <mxGeometry relative="1" as="geometry">
            <mxPoint x="-1285.21" y="1456" as="targetPoint" />
            <mxPoint x="-1284.21" y="1424" as="sourcePoint" />
            <Array as="points">
              <mxPoint x="-1285.47" y="1424" />
              <mxPoint x="-1285.47" y="1441" />
            </Array>
          </mxGeometry>
        </mxCell>
        <mxCell id="cl8IE2r-ji0NroWe0n9R-114" value="Train Each Model" style="rounded=1;whiteSpace=wrap;html=1;arcSize=40;fillColor=#dae8fc;strokeColor=#6c8ebf;strokeWidth=2;" vertex="1" parent="1">
          <mxGeometry x="-1345" y="1388" width="120" height="40" as="geometry" />
        </mxCell>
        <mxCell id="cl8IE2r-ji0NroWe0n9R-115" value="Plot and Log ROC Curve for Each Model" style="rounded=1;whiteSpace=wrap;html=1;arcSize=40;fillColor=#dae8fc;strokeColor=#6c8ebf;strokeWidth=2;" vertex="1" parent="1">
          <mxGeometry x="-1345" y="1668" width="120" height="40" as="geometry" />
        </mxCell>
        <mxCell id="cl8IE2r-ji0NroWe0n9R-116" value="" style="edgeStyle=orthogonalEdgeStyle;html=1;verticalAlign=bottom;endArrow=open;endSize=8;strokeColor=#6c8ebf;rounded=0;fillColor=#dae8fc;strokeWidth=2;" edge="1" parent="1">
          <mxGeometry relative="1" as="geometry">
            <mxPoint x="-1285" y="1668" as="targetPoint" />
            <mxPoint x="-1285" y="1638" as="sourcePoint" />
          </mxGeometry>
        </mxCell>
        <mxCell id="cl8IE2r-ji0NroWe0n9R-117" value="Log Metrics to Neptune for Each Model" style="rounded=1;whiteSpace=wrap;html=1;arcSize=40;fillColor=#dae8fc;strokeColor=#6c8ebf;strokeWidth=2;" vertex="1" parent="1">
          <mxGeometry x="-1364.5" y="1598" width="170" height="40" as="geometry" />
        </mxCell>
        <mxCell id="cl8IE2r-ji0NroWe0n9R-118" value="" style="edgeStyle=orthogonalEdgeStyle;html=1;verticalAlign=bottom;endArrow=open;endSize=8;strokeColor=#6c8ebf;rounded=0;fillColor=#dae8fc;strokeWidth=2;" edge="1" parent="1">
          <mxGeometry relative="1" as="geometry">
            <mxPoint x="-1285" y="1738" as="targetPoint" />
            <mxPoint x="-1285" y="1708" as="sourcePoint" />
          </mxGeometry>
        </mxCell>
        <mxCell id="cl8IE2r-ji0NroWe0n9R-119" value="Create and Display Comparison DataFrame" style="rounded=1;whiteSpace=wrap;html=1;arcSize=40;fillColor=#dae8fc;strokeColor=#6c8ebf;strokeWidth=2;" vertex="1" parent="1">
          <mxGeometry x="-1374.5" y="1738" width="180" height="40" as="geometry" />
        </mxCell>
        <mxCell id="cl8IE2r-ji0NroWe0n9R-121" value="" style="edgeStyle=orthogonalEdgeStyle;html=1;verticalAlign=bottom;endArrow=open;endSize=8;strokeColor=#6c8ebf;rounded=0;fillColor=#dae8fc;strokeWidth=2;" edge="1" parent="1">
          <mxGeometry relative="1" as="geometry">
            <mxPoint x="-1285.47" y="1808" as="targetPoint" />
            <mxPoint x="-1285.47" y="1778" as="sourcePoint" />
          </mxGeometry>
        </mxCell>
        <mxCell id="cl8IE2r-ji0NroWe0n9R-122" value="Inizialize Neptune Run" style="rounded=1;whiteSpace=wrap;html=1;arcSize=40;fillColor=#dae8fc;strokeColor=#6c8ebf;strokeWidth=2;" vertex="1" parent="1">
          <mxGeometry x="-1345.01" y="1948" width="120" height="40" as="geometry" />
        </mxCell>
        <mxCell id="cl8IE2r-ji0NroWe0n9R-123" value="" style="edgeStyle=orthogonalEdgeStyle;html=1;verticalAlign=bottom;endArrow=open;endSize=8;strokeColor=#6c8ebf;rounded=0;fillColor=#dae8fc;strokeWidth=2;" edge="1" parent="1">
          <mxGeometry relative="1" as="geometry">
            <mxPoint x="-1285.5" y="1948" as="targetPoint" />
            <mxPoint x="-1285.01" y="1918" as="sourcePoint" />
          </mxGeometry>
        </mxCell>
        <mxCell id="cl8IE2r-ji0NroWe0n9R-124" value="" style="edgeStyle=orthogonalEdgeStyle;html=1;verticalAlign=bottom;endArrow=open;endSize=8;strokeColor=#6c8ebf;rounded=0;exitX=0.013;exitY=0.826;exitDx=0;exitDy=0;exitPerimeter=0;fillColor=#dae8fc;strokeWidth=2;" edge="1" parent="1">
          <mxGeometry relative="1" as="geometry">
            <mxPoint x="-1285.3799999999999" y="2020" as="targetPoint" />
            <mxPoint x="-1284.3799999999999" y="1988" as="sourcePoint" />
            <Array as="points">
              <mxPoint x="-1285.64" y="1988" />
              <mxPoint x="-1285.64" y="2005" />
            </Array>
          </mxGeometry>
        </mxCell>
        <mxCell id="cl8IE2r-ji0NroWe0n9R-125" value="Stop Neptune Run" style="rounded=1;whiteSpace=wrap;html=1;arcSize=40;fillColor=#dae8fc;strokeColor=#6c8ebf;strokeWidth=2;" vertex="1" parent="1">
          <mxGeometry x="-1345.01" y="1878" width="120" height="40" as="geometry" />
        </mxCell>
        <mxCell id="cl8IE2r-ji0NroWe0n9R-126" value="" style="edgeStyle=orthogonalEdgeStyle;html=1;verticalAlign=bottom;endArrow=open;endSize=8;strokeColor=#6c8ebf;rounded=0;exitX=0.013;exitY=0.826;exitDx=0;exitDy=0;exitPerimeter=0;fillColor=#dae8fc;strokeWidth=2;" edge="1" parent="1">
          <mxGeometry relative="1" as="geometry">
            <mxPoint x="-1285.22" y="1878" as="targetPoint" />
            <mxPoint x="-1284.22" y="1846" as="sourcePoint" />
            <Array as="points">
              <mxPoint x="-1285.48" y="1846" />
              <mxPoint x="-1285.48" y="1863" />
            </Array>
          </mxGeometry>
        </mxCell>
        <mxCell id="cl8IE2r-ji0NroWe0n9R-127" value="Log Comparison Table" style="rounded=1;whiteSpace=wrap;html=1;arcSize=40;fillColor=#dae8fc;strokeColor=#6c8ebf;strokeWidth=2;" vertex="1" parent="1">
          <mxGeometry x="-1345.01" y="1810" width="120" height="40" as="geometry" />
        </mxCell>
        <mxCell id="cl8IE2r-ji0NroWe0n9R-128" value="Perform Predictions on Test Set for Each Model" style="rounded=1;whiteSpace=wrap;html=1;arcSize=50;fillColor=#dae8fc;strokeColor=#6c8ebf;strokeWidth=2;" vertex="1" parent="1">
          <mxGeometry x="-1374.5" y="2090" width="180" height="40" as="geometry" />
        </mxCell>
        <mxCell id="cl8IE2r-ji0NroWe0n9R-129" value="" style="edgeStyle=orthogonalEdgeStyle;html=1;verticalAlign=bottom;endArrow=open;endSize=8;strokeColor=#6c8ebf;rounded=0;fillColor=#dae8fc;strokeWidth=2;" edge="1" parent="1">
          <mxGeometry relative="1" as="geometry">
            <mxPoint x="-1285.01" y="2090" as="targetPoint" />
            <mxPoint x="-1285.01" y="2060" as="sourcePoint" />
          </mxGeometry>
        </mxCell>
        <mxCell id="cl8IE2r-ji0NroWe0n9R-130" value="Evaluate GridSearch and RandomForest Models" style="rounded=1;whiteSpace=wrap;html=1;arcSize=40;fillColor=#dae8fc;strokeColor=#6c8ebf;strokeWidth=2;" vertex="1" parent="1">
          <mxGeometry x="-1374.5" y="2020" width="180" height="40" as="geometry" />
        </mxCell>
        <mxCell id="cl8IE2r-ji0NroWe0n9R-131" value="" style="edgeStyle=orthogonalEdgeStyle;html=1;verticalAlign=bottom;endArrow=open;endSize=8;strokeColor=#6c8ebf;rounded=0;fillColor=#dae8fc;strokeWidth=2;" edge="1" parent="1">
          <mxGeometry relative="1" as="geometry">
            <mxPoint x="-1285.01" y="2160" as="targetPoint" />
            <mxPoint x="-1285.01" y="2130" as="sourcePoint" />
          </mxGeometry>
        </mxCell>
        <mxCell id="cl8IE2r-ji0NroWe0n9R-133" value="Compute Metrics for Each Model" style="rounded=1;whiteSpace=wrap;html=1;arcSize=40;fillColor=#dae8fc;strokeColor=#6c8ebf;strokeWidth=2;" vertex="1" parent="1">
          <mxGeometry x="-1344.98" y="2158" width="120" height="40" as="geometry" />
        </mxCell>
        <mxCell id="cl8IE2r-ji0NroWe0n9R-134" value="" style="edgeStyle=orthogonalEdgeStyle;html=1;verticalAlign=bottom;endArrow=open;endSize=8;strokeColor=#6c8ebf;rounded=0;fillColor=#dae8fc;strokeWidth=2;" edge="1" parent="1">
          <mxGeometry relative="1" as="geometry">
            <mxPoint x="-1285.45" y="2228" as="targetPoint" />
            <mxPoint x="-1285.45" y="2198" as="sourcePoint" />
          </mxGeometry>
        </mxCell>
        <mxCell id="cl8IE2r-ji0NroWe0n9R-135" value="Compute and Log Cross-Validation Scores for Each Model" style="rounded=1;whiteSpace=wrap;html=1;arcSize=40;fillColor=#dae8fc;strokeColor=#6c8ebf;strokeWidth=2;" vertex="1" parent="1">
          <mxGeometry x="-1374.5" y="2368" width="180" height="40" as="geometry" />
        </mxCell>
        <mxCell id="cl8IE2r-ji0NroWe0n9R-136" value="" style="edgeStyle=orthogonalEdgeStyle;html=1;verticalAlign=bottom;endArrow=open;endSize=8;strokeColor=#6c8ebf;rounded=0;fillColor=#dae8fc;strokeWidth=2;" edge="1" parent="1">
          <mxGeometry relative="1" as="geometry">
            <mxPoint x="-1285.48" y="2368" as="targetPoint" />
            <mxPoint x="-1284.99" y="2338" as="sourcePoint" />
          </mxGeometry>
        </mxCell>
        <mxCell id="cl8IE2r-ji0NroWe0n9R-137" value="" style="edgeStyle=orthogonalEdgeStyle;html=1;verticalAlign=bottom;endArrow=open;endSize=8;strokeColor=#6c8ebf;rounded=0;exitX=0.013;exitY=0.826;exitDx=0;exitDy=0;exitPerimeter=0;fillColor=#dae8fc;strokeWidth=2;" edge="1" parent="1">
          <mxGeometry relative="1" as="geometry">
            <mxPoint x="-1285.36" y="2440" as="targetPoint" />
            <mxPoint x="-1284.36" y="2408" as="sourcePoint" />
            <Array as="points">
              <mxPoint x="-1285.6200000000001" y="2408" />
              <mxPoint x="-1285.6200000000001" y="2425" />
            </Array>
          </mxGeometry>
        </mxCell>
        <mxCell id="cl8IE2r-ji0NroWe0n9R-138" value="Display and Log Confusion Matrix for Each Model" style="rounded=1;whiteSpace=wrap;html=1;arcSize=40;fillColor=#dae8fc;strokeColor=#6c8ebf;strokeWidth=2;" vertex="1" parent="1">
          <mxGeometry x="-1374.5" y="2298" width="180" height="40" as="geometry" />
        </mxCell>
        <mxCell id="cl8IE2r-ji0NroWe0n9R-139" value="" style="edgeStyle=orthogonalEdgeStyle;html=1;verticalAlign=bottom;endArrow=open;endSize=8;strokeColor=#6c8ebf;rounded=0;exitX=0.013;exitY=0.826;exitDx=0;exitDy=0;exitPerimeter=0;fillColor=#dae8fc;strokeWidth=2;" edge="1" parent="1">
          <mxGeometry relative="1" as="geometry">
            <mxPoint x="-1285.2" y="2298" as="targetPoint" />
            <mxPoint x="-1284.2" y="2266" as="sourcePoint" />
            <Array as="points">
              <mxPoint x="-1285.46" y="2266" />
              <mxPoint x="-1285.46" y="2283" />
            </Array>
          </mxGeometry>
        </mxCell>
        <mxCell id="cl8IE2r-ji0NroWe0n9R-140" value="Log Metrics for Each Model" style="rounded=1;whiteSpace=wrap;html=1;arcSize=40;fillColor=#dae8fc;strokeColor=#6c8ebf;strokeWidth=2;" vertex="1" parent="1">
          <mxGeometry x="-1344.99" y="2230" width="120" height="40" as="geometry" />
        </mxCell>
        <mxCell id="cl8IE2r-ji0NroWe0n9R-141" value="Plot Cross_Validation Scores Distribution For Each Model" style="rounded=1;whiteSpace=wrap;html=1;arcSize=40;fillColor=#dae8fc;strokeColor=#6c8ebf;strokeWidth=2;" vertex="1" parent="1">
          <mxGeometry x="-1374.5" y="2510" width="180" height="40" as="geometry" />
        </mxCell>
        <mxCell id="cl8IE2r-ji0NroWe0n9R-142" value="" style="edgeStyle=orthogonalEdgeStyle;html=1;verticalAlign=bottom;endArrow=open;endSize=8;strokeColor=#6c8ebf;rounded=0;fillColor=#dae8fc;strokeWidth=2;" edge="1" parent="1">
          <mxGeometry relative="1" as="geometry">
            <mxPoint x="-1284.99" y="2510" as="targetPoint" />
            <mxPoint x="-1284.99" y="2480" as="sourcePoint" />
          </mxGeometry>
        </mxCell>
        <mxCell id="cl8IE2r-ji0NroWe0n9R-143" value="Compute and Log Recall Scores for Each Model" style="rounded=1;whiteSpace=wrap;html=1;arcSize=40;fillColor=#dae8fc;strokeColor=#6c8ebf;strokeWidth=2;" vertex="1" parent="1">
          <mxGeometry x="-1374.5" y="2440" width="180" height="40" as="geometry" />
        </mxCell>
        <mxCell id="cl8IE2r-ji0NroWe0n9R-144" value="" style="edgeStyle=orthogonalEdgeStyle;html=1;verticalAlign=bottom;endArrow=open;endSize=8;strokeColor=#6c8ebf;rounded=0;fillColor=#dae8fc;strokeWidth=2;" edge="1" parent="1">
          <mxGeometry relative="1" as="geometry">
            <mxPoint x="-1284.99" y="2580" as="targetPoint" />
            <mxPoint x="-1284.99" y="2550" as="sourcePoint" />
          </mxGeometry>
        </mxCell>
        <mxCell id="cl8IE2r-ji0NroWe0n9R-145" value="Compute and Log Feature Importance for RandomForest" style="rounded=1;whiteSpace=wrap;html=1;arcSize=40;fillColor=#dae8fc;strokeColor=#6c8ebf;strokeWidth=2;" vertex="1" parent="1">
          <mxGeometry x="-1374.5" y="2716" width="180" height="40" as="geometry" />
        </mxCell>
        <mxCell id="cl8IE2r-ji0NroWe0n9R-146" value="" style="edgeStyle=orthogonalEdgeStyle;html=1;verticalAlign=bottom;endArrow=open;endSize=8;strokeColor=#6c8ebf;rounded=0;fillColor=#dae8fc;strokeWidth=2;" edge="1" parent="1">
          <mxGeometry relative="1" as="geometry">
            <mxPoint x="-1285.5" y="2716" as="targetPoint" />
            <mxPoint x="-1285.01" y="2686" as="sourcePoint" />
          </mxGeometry>
        </mxCell>
        <mxCell id="cl8IE2r-ji0NroWe0n9R-147" value="" style="edgeStyle=orthogonalEdgeStyle;html=1;verticalAlign=bottom;endArrow=open;endSize=8;strokeColor=#6c8ebf;rounded=0;exitX=0.013;exitY=0.826;exitDx=0;exitDy=0;exitPerimeter=0;fillColor=#dae8fc;strokeWidth=2;" edge="1" parent="1">
          <mxGeometry relative="1" as="geometry">
            <mxPoint x="-1285.3799999999999" y="2788" as="targetPoint" />
            <mxPoint x="-1284.3799999999999" y="2756" as="sourcePoint" />
            <Array as="points">
              <mxPoint x="-1285.64" y="2756" />
              <mxPoint x="-1285.64" y="2773" />
            </Array>
          </mxGeometry>
        </mxCell>
        <mxCell id="cl8IE2r-ji0NroWe0n9R-148" value="Inizialize Neptune Run" style="rounded=1;whiteSpace=wrap;html=1;arcSize=40;fillColor=#dae8fc;strokeColor=#6c8ebf;strokeWidth=2;" vertex="1" parent="1">
          <mxGeometry x="-1345.01" y="2646" width="120" height="40" as="geometry" />
        </mxCell>
        <mxCell id="cl8IE2r-ji0NroWe0n9R-149" value="" style="edgeStyle=orthogonalEdgeStyle;html=1;verticalAlign=bottom;endArrow=open;endSize=8;strokeColor=#6c8ebf;rounded=0;exitX=0.013;exitY=0.826;exitDx=0;exitDy=0;exitPerimeter=0;fillColor=#dae8fc;strokeWidth=2;" edge="1" parent="1">
          <mxGeometry relative="1" as="geometry">
            <mxPoint x="-1285.22" y="2646" as="targetPoint" />
            <mxPoint x="-1284.22" y="2614" as="sourcePoint" />
            <Array as="points">
              <mxPoint x="-1285.48" y="2614" />
              <mxPoint x="-1285.48" y="2631" />
            </Array>
          </mxGeometry>
        </mxCell>
        <mxCell id="cl8IE2r-ji0NroWe0n9R-150" value="Stop Neptune Run" style="rounded=1;whiteSpace=wrap;html=1;arcSize=40;fillColor=#dae8fc;strokeColor=#6c8ebf;strokeWidth=2;" vertex="1" parent="1">
          <mxGeometry x="-1345.01" y="2578" width="120" height="40" as="geometry" />
        </mxCell>
        <mxCell id="cl8IE2r-ji0NroWe0n9R-151" value="Compute and Log Feature Importance Plot for RandomForest" style="rounded=1;whiteSpace=wrap;html=1;arcSize=40;fillColor=#dae8fc;strokeColor=#6c8ebf;strokeWidth=2;" vertex="1" parent="1">
          <mxGeometry x="-1375.01" y="2788" width="180" height="40" as="geometry" />
        </mxCell>
        <mxCell id="cl8IE2r-ji0NroWe0n9R-152" value="" style="edgeStyle=orthogonalEdgeStyle;html=1;verticalAlign=bottom;endArrow=open;endSize=8;strokeColor=#6c8ebf;rounded=0;exitX=0.013;exitY=0.826;exitDx=0;exitDy=0;exitPerimeter=0;fillColor=#dae8fc;strokeWidth=2;" edge="1" parent="1">
          <mxGeometry relative="1" as="geometry">
            <mxPoint x="-1285.8899999999999" y="2860" as="targetPoint" />
            <mxPoint x="-1284.8899999999999" y="2828" as="sourcePoint" />
            <Array as="points">
              <mxPoint x="-1286.15" y="2828" />
              <mxPoint x="-1286.15" y="2845" />
            </Array>
          </mxGeometry>
        </mxCell>
        <mxCell id="cl8IE2r-ji0NroWe0n9R-153" value="" style="edgeStyle=orthogonalEdgeStyle;html=1;verticalAlign=bottom;endArrow=open;endSize=8;strokeColor=#6c8ebf;rounded=0;fillColor=#dae8fc;strokeWidth=2;" edge="1" parent="1">
          <mxGeometry relative="1" as="geometry">
            <mxPoint x="-1285.5" y="2996" as="targetPoint" />
            <mxPoint x="-1285.01" y="2966" as="sourcePoint" />
          </mxGeometry>
        </mxCell>
        <mxCell id="cl8IE2r-ji0NroWe0n9R-154" value="Create an Explainer Object" style="rounded=1;whiteSpace=wrap;html=1;arcSize=40;fillColor=#dae8fc;strokeColor=#6c8ebf;strokeWidth=2;" vertex="1" parent="1">
          <mxGeometry x="-1345.01" y="2926" width="120" height="40" as="geometry" />
        </mxCell>
        <mxCell id="cl8IE2r-ji0NroWe0n9R-155" value="" style="edgeStyle=orthogonalEdgeStyle;html=1;verticalAlign=bottom;endArrow=open;endSize=8;strokeColor=#6c8ebf;rounded=0;exitX=0.013;exitY=0.826;exitDx=0;exitDy=0;exitPerimeter=0;fillColor=#dae8fc;strokeWidth=2;" edge="1" parent="1">
          <mxGeometry relative="1" as="geometry">
            <mxPoint x="-1285.22" y="2926" as="targetPoint" />
            <mxPoint x="-1284.22" y="2894" as="sourcePoint" />
            <Array as="points">
              <mxPoint x="-1285.48" y="2894" />
              <mxPoint x="-1285.48" y="2911" />
            </Array>
          </mxGeometry>
        </mxCell>
        <mxCell id="cl8IE2r-ji0NroWe0n9R-156" value="Stop Neptune Run" style="rounded=1;whiteSpace=wrap;html=1;arcSize=40;fillColor=#dae8fc;strokeColor=#6c8ebf;strokeWidth=2;" vertex="1" parent="1">
          <mxGeometry x="-1345.01" y="2858" width="120" height="40" as="geometry" />
        </mxCell>
        <mxCell id="cl8IE2r-ji0NroWe0n9R-157" value="" style="edgeStyle=orthogonalEdgeStyle;html=1;verticalAlign=bottom;endArrow=open;endSize=8;strokeColor=#6c8ebf;rounded=0;fillColor=#dae8fc;strokeWidth=2;" edge="1" parent="1">
          <mxGeometry relative="1" as="geometry">
            <mxPoint x="-1285.5" y="3136" as="targetPoint" />
            <mxPoint x="-1285.01" y="3106" as="sourcePoint" />
          </mxGeometry>
        </mxCell>
        <mxCell id="cl8IE2r-ji0NroWe0n9R-158" value="Display Summary Plot" style="rounded=1;whiteSpace=wrap;html=1;arcSize=40;fillColor=#dae8fc;strokeColor=#6c8ebf;strokeWidth=2;" vertex="1" parent="1">
          <mxGeometry x="-1345.01" y="3066" width="120" height="40" as="geometry" />
        </mxCell>
        <mxCell id="cl8IE2r-ji0NroWe0n9R-159" value="" style="edgeStyle=orthogonalEdgeStyle;html=1;verticalAlign=bottom;endArrow=open;endSize=8;strokeColor=#6c8ebf;rounded=0;exitX=0.013;exitY=0.826;exitDx=0;exitDy=0;exitPerimeter=0;fillColor=#dae8fc;strokeWidth=2;" edge="1" parent="1">
          <mxGeometry relative="1" as="geometry">
            <mxPoint x="-1285.22" y="3066" as="targetPoint" />
            <mxPoint x="-1284.22" y="3034" as="sourcePoint" />
            <Array as="points">
              <mxPoint x="-1285.48" y="3034" />
              <mxPoint x="-1285.48" y="3051" />
            </Array>
          </mxGeometry>
        </mxCell>
        <mxCell id="cl8IE2r-ji0NroWe0n9R-160" value="Compute SHAP Values for a Subset of Data" style="rounded=1;whiteSpace=wrap;html=1;arcSize=40;fillColor=#dae8fc;strokeColor=#6c8ebf;strokeWidth=2;" vertex="1" parent="1">
          <mxGeometry x="-1374.5" y="2998" width="180" height="40" as="geometry" />
        </mxCell>
        <mxCell id="cl8IE2r-ji0NroWe0n9R-161" value="" style="edgeStyle=orthogonalEdgeStyle;html=1;verticalAlign=bottom;endArrow=open;endSize=8;strokeColor=#6c8ebf;rounded=0;fillColor=#dae8fc;strokeWidth=2;" edge="1" parent="1">
          <mxGeometry relative="1" as="geometry">
            <mxPoint x="-1285.47" y="3208" as="targetPoint" />
            <mxPoint x="-1284.98" y="3178" as="sourcePoint" />
          </mxGeometry>
        </mxCell>
        <mxCell id="cl8IE2r-ji0NroWe0n9R-162" value="Save Best Model" style="rounded=1;whiteSpace=wrap;html=1;arcSize=40;fillColor=#dae8fc;strokeColor=#6c8ebf;strokeWidth=2;" vertex="1" parent="1">
          <mxGeometry x="-1344.98" y="3138" width="120" height="40" as="geometry" />
        </mxCell>
        <mxCell id="cl8IE2r-ji0NroWe0n9R-163" value="" style="ellipse;html=1;shape=endState;fillColor=light-dark(#000000, #1d293b);strokeColor=light-dark(#000000, #5c79a3);strokeWidth=2;" vertex="1" parent="1">
          <mxGeometry x="-1300.01" y="3208" width="30" height="30" as="geometry" />
        </mxCell>
      </root>
    </mxGraphModel>
  </diagram>
</mxfile>
